<svg width="58" height="58" viewBox="0 0 58 58" fill="none" xmlns="http://www.w3.org/2000/svg">
<g filter="url(#filter0_d)">
<circle cx="29" cy="25" r="25" fill="#292935"/>
</g>
<path d="M29 7C19.0548 7 11 15.1773 11 25.2737C11 33.8616 16.8044 40.9891 24.6356 42.9984C24.5452 42.7698 24.5008 42.4495 24.5008 42.1306V39.0233H22.2504C21.0356 39.0233 19.9096 38.4759 19.4148 37.4697C18.8296 36.3733 18.7392 34.6827 17.2548 33.6314C16.8044 33.2659 17.1644 32.9005 17.6592 32.9456C18.6044 33.2193 19.3689 33.86 20.0889 34.818C20.8089 35.7776 21.1244 36.0062 22.474 36.0062C23.1037 36.0062 24.0933 35.9611 24.994 35.8227C25.4889 34.5428 26.3437 33.4012 27.3792 32.8538C21.3496 32.1229 18.4696 29.1073 18.4696 24.9953C18.4696 23.2131 19.234 21.5226 20.4948 20.0607C20.0904 18.6439 19.5496 15.7201 20.6756 14.5785C23.3763 14.5785 24.9956 16.3608 25.4 16.8165C26.7496 16.3593 28.2356 16.0855 29.7644 16.0855C31.3392 16.0855 32.7792 16.3593 34.1289 16.8165C34.5333 16.3593 36.154 14.5785 38.8533 14.5785C39.9333 15.675 39.4385 18.6439 38.9881 20.0607C40.2489 21.4774 40.9689 23.2131 40.9689 24.9953C40.9689 29.1073 38.1333 32.1229 32.1496 32.7621C33.8148 33.6299 34.9852 36.0964 34.9852 37.9238V42.0855C34.9852 42.2224 34.9408 42.3593 34.9408 42.4961C41.96 40.0295 47 33.2691 47 25.2737C47 15.1773 38.9452 7 29 7Z" fill="#E9E9E9"/>
<defs>
<filter id="filter0_d" x="0" y="0" width="58" height="58" filterUnits="userSpaceOnUse" color-interpolation-filters="sRGB">
<feFlood flood-opacity="0" result="BackgroundImageFix"/>
<feColorMatrix in="SourceAlpha" type="matrix" values="0 0 0 0 0 0 0 0 0 0 0 0 0 0 0 0 0 0 127 0"/>
<feOffset dy="4"/>
<feGaussianBlur stdDeviation="2"/>
<feColorMatrix type="matrix" values="0 0 0 0 0 0 0 0 0 0 0 0 0 0 0 0 0 0 0.25 0"/>
<feBlend mode="normal" in2="BackgroundImageFix" result="effect1_dropShadow"/>
<feBlend mode="normal" in="SourceGraphic" in2="effect1_dropShadow" result="shape"/>
</filter>
</defs>
</svg>
